<svg width="126" height="62" viewBox="0 0 126 62" fill="none" xmlns="http://www.w3.org/2000/svg">
<path d="M98.9713 24.7488V25.6011H99.974V25.9896H98.9713V26.8795H100.099V27.2681H98.495V24.3602H100.099V24.7488H98.9713ZM101.643 27.2973C101.448 27.2973 101.272 27.2639 101.116 27.197C100.96 27.1274 100.838 27.0299 100.749 26.9046C100.66 26.7792 100.615 26.633 100.615 26.4659H101.125C101.136 26.5912 101.185 26.6943 101.271 26.7751C101.36 26.8558 101.484 26.8962 101.643 26.8962C101.807 26.8962 101.935 26.8572 102.027 26.7792C102.119 26.6985 102.165 26.5954 102.165 26.4701C102.165 26.3726 102.136 26.2932 102.077 26.2319C102.022 26.1707 101.95 26.1233 101.864 26.0899C101.781 26.0565 101.664 26.0203 101.513 25.9813C101.324 25.9311 101.169 25.881 101.049 25.8309C100.932 25.7779 100.832 25.6972 100.749 25.5885C100.665 25.4799 100.623 25.3351 100.623 25.154C100.623 24.9869 100.665 24.8407 100.749 24.7153C100.832 24.59 100.949 24.4939 101.1 24.4271C101.25 24.3602 101.424 24.3268 101.622 24.3268C101.903 24.3268 102.133 24.3978 102.311 24.5399C102.492 24.6791 102.593 24.8713 102.612 25.1164H102.086C102.077 25.0106 102.027 24.9201 101.935 24.8449C101.843 24.7697 101.722 24.7321 101.572 24.7321C101.435 24.7321 101.324 24.7669 101.237 24.8365C101.151 24.9061 101.108 25.0064 101.108 25.1373C101.108 25.2264 101.134 25.3003 101.187 25.3587C101.243 25.4144 101.313 25.459 101.396 25.4924C101.48 25.5259 101.594 25.5621 101.739 25.6011C101.931 25.654 102.087 25.7069 102.207 25.7598C102.329 25.8127 102.432 25.8949 102.516 26.0063C102.602 26.115 102.645 26.2612 102.645 26.445C102.645 26.5926 102.605 26.7319 102.524 26.8628C102.446 26.9937 102.331 27.0996 102.177 27.1803C102.027 27.2583 101.849 27.2973 101.643 27.2973ZM105.083 24.3644V24.7529H104.31V27.2681H103.834V24.7529H103.057V24.3644H105.083ZM105.758 27.2973C105.672 27.2973 105.599 27.2681 105.541 27.2096C105.482 27.1511 105.453 27.0787 105.453 26.9923C105.453 26.906 105.482 26.8336 105.541 26.7751C105.599 26.7166 105.672 26.6873 105.758 26.6873C105.841 26.6873 105.912 26.7166 105.971 26.7751C106.029 26.8336 106.059 26.906 106.059 26.9923C106.059 27.0787 106.029 27.1511 105.971 27.2096C105.912 27.2681 105.841 27.2973 105.758 27.2973ZM107.859 26.6205C108.127 26.3893 108.337 26.1999 108.49 26.0523C108.646 25.9019 108.776 25.7459 108.879 25.5844C108.982 25.4228 109.033 25.2613 109.033 25.0997C109.033 24.9326 108.993 24.8017 108.912 24.707C108.834 24.6123 108.71 24.5649 108.54 24.5649C108.376 24.5649 108.248 24.6179 108.156 24.7237C108.067 24.8268 108.019 24.966 108.014 25.1415H107.554C107.563 24.824 107.657 24.5816 107.838 24.4145C108.022 24.2446 108.255 24.1597 108.536 24.1597C108.84 24.1597 109.076 24.2432 109.246 24.4103C109.419 24.5775 109.505 24.8003 109.505 25.0788C109.505 25.2794 109.454 25.4729 109.351 25.6596C109.251 25.8434 109.129 26.0091 108.987 26.1567C108.848 26.3016 108.67 26.4701 108.453 26.6623L108.265 26.8294H109.589V27.2263H107.558V26.8795L107.859 26.6205ZM110.007 25.7055C110.007 25.2237 110.088 24.8476 110.25 24.5775C110.414 24.3045 110.695 24.168 111.094 24.168C111.492 24.168 111.772 24.3045 111.933 24.5775C112.098 24.8476 112.18 25.2237 112.18 25.7055C112.18 26.1929 112.098 26.5745 111.933 26.8503C111.772 27.1232 111.492 27.2597 111.094 27.2597C110.695 27.2597 110.414 27.1232 110.25 26.8503C110.088 26.5745 110.007 26.1929 110.007 25.7055ZM111.712 25.7055C111.712 25.4799 111.697 25.2891 111.666 25.1331C111.638 24.9772 111.58 24.8504 111.491 24.7529C111.401 24.6527 111.269 24.6025 111.094 24.6025C110.918 24.6025 110.786 24.6527 110.697 24.7529C110.608 24.8504 110.548 24.9772 110.517 25.1331C110.489 25.2891 110.475 25.4799 110.475 25.7055C110.475 25.9395 110.489 26.1358 110.517 26.2946C110.545 26.4534 110.603 26.5815 110.693 26.679C110.784 26.7765 110.918 26.8252 111.094 26.8252C111.269 26.8252 111.401 26.7765 111.491 26.679C111.582 26.5815 111.642 26.4534 111.67 26.2946C111.698 26.1358 111.712 25.9395 111.712 25.7055ZM112.947 26.6205C113.214 26.3893 113.425 26.1999 113.578 26.0523C113.734 25.9019 113.863 25.7459 113.966 25.5844C114.07 25.4228 114.121 25.2613 114.121 25.0997C114.121 24.9326 114.081 24.8017 114 24.707C113.922 24.6123 113.798 24.5649 113.628 24.5649C113.464 24.5649 113.336 24.6179 113.244 24.7237C113.155 24.8268 113.107 24.966 113.102 25.1415H112.642C112.65 24.824 112.745 24.5816 112.926 24.4145C113.11 24.2446 113.343 24.1597 113.624 24.1597C113.927 24.1597 114.164 24.2432 114.334 24.4103C114.507 24.5775 114.593 24.8003 114.593 25.0788C114.593 25.2794 114.542 25.4729 114.439 25.6596C114.338 25.8434 114.217 26.0091 114.075 26.1567C113.936 26.3016 113.758 26.4701 113.54 26.6623L113.352 26.8294H114.677V27.2263H112.646V26.8795L112.947 26.6205ZM115.037 26.633V26.2737L116.44 24.2599H117.017V26.2194H117.406V26.633H117.017V27.2681H116.549V26.633H115.037ZM116.57 24.7446L115.584 26.2194H116.57V24.7446Z" fill="#1B4332"/>
<path d="M79.4244 61.5138H77.2658C77.4398 61.2945 77.5339 60.995 77.5339 60.6782C77.5339 60.5668 77.5339 60.4415 77.5025 60.3335H76.2282C76.2108 60.4449 76.1969 60.5529 76.1969 60.6643C76.1969 60.995 76.3083 61.2945 76.4789 61.5138H74.3203C74.6824 61.2144 74.9505 60.7896 75.0619 60.3335L75.424 58.537L75.4414 58.3629C75.4414 58.2063 75.3927 58.0635 75.2986 57.9521C75.4867 57.7954 75.612 57.59 75.6607 57.3533L76.0402 55.5567C76.0716 55.4453 76.0716 55.32 76.0716 55.2121C76.0716 54.8952 75.9776 54.5993 75.8035 54.3765H77.9447C77.7706 54.5958 77.6766 54.8952 77.6766 55.2121C77.6766 55.3235 77.6766 55.4488 77.7079 55.5567L78.07 57.3533C78.1188 57.59 78.258 57.7954 78.4321 57.9521C78.352 58.0635 78.3068 58.1888 78.3068 58.3629L78.3242 58.537L78.6863 60.3335C78.7803 60.7896 79.0484 61.2144 79.4279 61.5138H79.4244ZM77.2658 59.1672L76.8723 57.2314L76.4789 59.1672H77.2658Z" fill="#1B4332"/>
<path d="M95.8834 61.5138H93.7248C93.8988 61.2945 93.9928 60.995 93.9928 60.6782C93.9928 60.5668 93.9928 60.4415 93.9615 60.3335H92.6872C92.6698 60.4449 92.6559 60.5529 92.6559 60.6643C92.6559 60.995 92.7673 61.2945 92.9379 61.5138H90.7793C91.1414 61.2144 91.4095 60.7896 91.5209 60.3335L91.883 58.537L91.9004 58.3629C91.9004 58.2063 91.8516 58.0635 91.7576 57.9521C91.9456 57.7954 92.071 57.59 92.1197 57.3533L92.4992 55.5567C92.5306 55.4453 92.5306 55.32 92.5306 55.2121C92.5306 54.8952 92.4366 54.5993 92.2625 54.3765H94.4037C94.2296 54.5958 94.1356 54.8952 94.1356 55.2121C94.1356 55.3235 94.1356 55.4488 94.1669 55.5567L94.529 57.3533C94.5778 57.59 94.717 57.7954 94.8911 57.9521C94.811 58.0635 94.7658 58.1888 94.7658 58.3629L94.7832 58.537L95.1453 60.3335C95.2393 60.7896 95.5073 61.2144 95.8868 61.5138H95.8834ZM93.7248 59.1672L93.3313 57.2314L92.9379 59.1672H93.7248Z" fill="#1B4332"/>
<path d="M64.8474 61.5137H60.2969C60.5963 61.2143 60.7843 60.7896 60.7843 60.3335V58.5369C60.7843 58.3002 60.6903 58.0948 60.5476 57.9555C60.6903 57.7988 60.7843 57.5934 60.7843 57.3567V55.5602C60.7843 55.1041 60.5963 54.6793 60.2969 54.3799H64.8474V56.0511C64.5479 55.7516 64.1371 55.5636 63.681 55.5636H61.9646V57.3602H62.5007C62.9568 57.3602 63.3816 57.1721 63.681 56.8727V59.0313C63.3816 58.7319 62.9568 58.5439 62.5007 58.5439H61.9646V60.3404H63.681C64.1371 60.3404 64.5479 60.1524 64.8474 59.853V61.5242V61.5137Z" fill="#1B4332"/>
<path d="M101.909 61.5137H100.255L98.5384 57.2766V60.3335C98.5384 60.7896 98.7264 61.2143 99.0258 61.5137H96.8672C97.1666 61.2143 97.3546 60.7896 97.3546 60.3335V58.5369C97.3546 58.3002 97.2606 58.0948 97.1179 57.9555C97.2606 57.7988 97.3546 57.5934 97.3546 57.3567V55.5602C97.3546 55.1041 97.1666 54.6793 96.8672 54.3799H98.5349L100.251 58.617V55.5602C100.251 55.1041 100.063 54.6793 99.7639 54.3799H101.905C101.606 54.6793 101.418 55.1041 101.418 55.5602V57.3567C101.418 57.5934 101.512 57.7988 101.668 57.9555C101.512 58.0983 101.418 58.3037 101.418 58.5369V60.3335C101.418 60.7896 101.606 61.2143 101.905 61.5137H101.909Z" fill="#1B4332"/>
<path d="M59.3048 61.5137H57.1462C57.2402 61.3571 57.289 61.1691 57.289 60.9636C57.289 60.7756 57.2402 60.5528 57.1462 60.3335L56.4046 58.5369H55.8684V60.3335C55.8684 60.7896 56.0565 61.2143 56.3559 61.5137H54.1973C54.4967 61.2143 54.6847 60.7896 54.6847 60.3335V58.5369C54.6847 58.3002 54.5907 58.0948 54.4479 57.9555C54.5907 57.7988 54.6847 57.5934 54.6847 57.3567V55.5602C54.6847 55.1041 54.4967 54.6793 54.1973 54.3799H56.7319C57.8808 54.3799 58.8104 55.3095 58.8104 56.4584C58.8104 57.3253 58.2743 58.0634 57.5187 58.3803L58.323 60.3335C58.511 60.7896 58.8731 61.2143 59.2978 61.5137H59.3048ZM56.7389 57.3567C57.2263 57.3567 57.6371 56.9632 57.6371 56.4584C57.6371 55.9536 57.2263 55.5602 56.7389 55.5602H55.8719V57.3567H56.7389Z" fill="#1B4332"/>
<path d="M89.7892 61.5137H87.6306C87.7246 61.3571 87.7733 61.1691 87.7733 60.9636C87.7733 60.7756 87.7246 60.5528 87.6306 60.3335L86.889 58.5369H86.3528V60.3335C86.3528 60.7896 86.5408 61.2143 86.8402 61.5137H84.6816C84.9811 61.2143 85.1691 60.7896 85.1691 60.3335V58.5369C85.1691 58.3002 85.0751 58.0948 84.9323 57.9555C85.0751 57.7988 85.1691 57.5934 85.1691 57.3567V55.5602C85.1691 55.1041 84.9811 54.6793 84.6816 54.3799H87.2163C88.3652 54.3799 89.2948 55.3095 89.2948 56.4584C89.2948 57.3253 88.7586 58.0634 88.0031 58.3803L88.8074 60.3335C88.9954 60.7896 89.3575 61.2143 89.7822 61.5137H89.7892ZM87.2232 57.3567C87.7107 57.3567 88.1215 56.9632 88.1215 56.4584C88.1215 55.9536 87.7107 55.5602 87.2232 55.5602H86.3563V57.3567H87.2232Z" fill="#1B4332"/>
<path d="M67.8657 61.5137C66.7481 61.5137 65.8359 60.6015 65.8359 59.4839C65.8359 58.9164 66.292 58.4603 66.8595 58.4603C66.9849 58.4603 67.1102 58.4916 67.2216 58.5404C67.0023 58.7284 66.8595 59.0139 66.8595 59.3272C66.8595 59.8773 67.3156 60.3334 67.8657 60.3334C68.3392 60.3334 68.7326 59.9539 68.7326 59.4839C68.7326 59.1044 68.4019 58.885 67.6916 58.4603C66.9361 58.0181 65.9891 57.468 65.9891 56.2564C65.9891 55.2328 66.8247 54.3833 67.8622 54.3833C68.8998 54.3833 69.7528 55.2328 69.7528 56.2564C69.7528 56.7752 69.328 57.1999 68.8092 57.1999C68.5412 57.1999 68.3044 57.0885 68.1303 56.9179C68.381 56.8065 68.5725 56.5558 68.5725 56.2564C68.5725 55.8769 68.2591 55.5636 67.8622 55.5636C67.4653 55.5636 67.1694 55.8769 67.1694 56.2564C67.1694 56.7613 67.5942 57.0433 68.287 57.4541C69.0112 57.8788 69.892 58.3976 69.892 59.4839C69.892 60.5701 68.9938 61.5137 67.8622 61.5137H67.8657Z" fill="#1B4332"/>
<path d="M106.018 61.5138H103.859C104.159 61.2144 104.347 60.7896 104.347 60.3335V58.537C104.347 58.3003 104.253 58.0948 104.096 57.9556C104.253 57.7989 104.347 57.5935 104.347 57.3567V55.5602C103.717 55.5602 103.341 55.609 102.898 56.0476V54.3765H106.961V56.0476C106.537 55.6055 106.157 55.5602 105.527 55.5602V57.3567C105.527 57.5935 105.621 57.7989 105.764 57.9556C105.621 58.0983 105.527 58.3037 105.527 58.537V60.3335C105.527 60.7896 105.701 61.2144 106.014 61.5138H106.018Z" fill="#1B4332"/>
<path d="M73.8578 61.5138H71.6992C71.9986 61.2144 72.1866 60.7896 72.1866 60.3335V58.537C72.1866 58.3003 72.0926 58.0948 71.936 57.9556C72.0926 57.7989 72.1866 57.5935 72.1866 57.3567V55.5602C71.5565 55.5602 71.1804 55.609 70.7383 56.0476V54.3765H74.8013V56.0476C74.3766 55.6055 73.9971 55.5602 73.3669 55.5602V57.3567C73.3669 57.5935 73.4609 57.7989 73.6037 57.9556C73.4609 58.0983 73.3669 58.3037 73.3669 58.537V60.3335C73.3669 60.7896 73.541 61.2144 73.8543 61.5138H73.8578Z" fill="#1B4332"/>
<path d="M81.6559 61.5137C80.5383 61.5137 79.6261 60.6015 79.6261 59.4839V58.5404C79.6261 58.3036 79.5321 58.0982 79.3893 57.9589C79.5321 57.8023 79.6261 57.5968 79.6261 57.3601V55.5636C79.6261 55.1075 79.4381 54.6827 79.1387 54.3833H81.2973C80.9979 54.6827 80.8099 55.1075 80.8099 55.5636V57.3601C80.8099 57.5968 80.9039 57.8023 81.0466 57.9589C80.9039 58.1017 80.8099 58.3071 80.8099 58.5404V59.4839C80.8099 59.9574 81.1894 60.3334 81.6594 60.3334C82.1294 60.3334 82.5263 59.9539 82.5263 59.4839V58.5404C82.5263 58.3036 82.4323 58.0982 82.2756 57.9589C82.4323 57.8023 82.5263 57.5968 82.5263 57.3601V55.5636C82.5263 55.1075 82.3383 54.6827 82.0389 54.3833H84.1801C83.8806 54.6827 83.6926 55.1075 83.6926 55.5636V57.3601C83.6926 57.5968 83.7866 57.8023 83.9433 57.9589C83.7866 58.1017 83.6926 58.3071 83.6926 58.5404V59.4839C83.6926 60.6015 82.7944 61.5137 81.6629 61.5137H81.6559Z" fill="#1B4332"/>
<path d="M28.1939 61.5138H26.0353C26.2094 61.2945 26.3034 60.995 26.3034 60.6782C26.3034 60.5668 26.3034 60.4415 26.272 60.3335H24.9978C24.9804 60.4449 24.9664 60.5529 24.9664 60.6643C24.9664 60.995 25.0779 61.2945 25.2485 61.5138H23.0898C23.4519 61.2144 23.72 60.7896 23.8314 60.3335L24.1935 58.537L24.2109 58.3629C24.2109 58.2063 24.1622 58.0635 24.0682 57.9521C24.2562 57.7954 24.3815 57.59 24.4303 57.3533L24.8098 55.5567C24.8411 55.4453 24.8411 55.32 24.8411 55.2121C24.8411 54.8952 24.7471 54.5993 24.573 54.3765H26.7142C26.5401 54.5958 26.4461 54.8952 26.4461 55.2121C26.4461 55.3235 26.4461 55.4488 26.4775 55.5567L26.8396 57.3533C26.8883 57.59 27.0276 57.7954 27.2016 57.9521C27.1216 58.0635 27.0763 58.1888 27.0763 58.3629L27.0937 58.537L27.4558 60.3335C27.5498 60.7896 27.8179 61.2144 28.1974 61.5138H28.1939ZM26.0353 59.1672L25.6419 57.2314L25.2485 59.1672H26.0353Z" fill="#1B4332"/>
<path d="M21.1957 61.5137H19.0371C19.3365 61.2143 19.5245 60.7896 19.5245 60.3335V58.5369C19.5245 58.3002 19.4305 58.0948 19.2878 57.9555C19.4305 57.7988 19.5245 57.5934 19.5245 57.3567V55.5602C19.5245 55.1041 19.3365 54.6793 19.0371 54.3799H23.5876V56.0511C23.2882 55.7516 22.8773 55.5636 22.4212 55.5636H20.7048V57.3602H21.241C21.6971 57.3602 22.1218 57.1721 22.4212 56.8727V59.0313C22.1218 58.7319 21.6971 58.5439 21.241 58.5439H20.7048V60.3404C20.7048 60.7965 20.8928 61.2213 21.1922 61.5207L21.1957 61.5137Z" fill="#1B4332"/>
<path d="M39.0844 61.5137H36.9258C37.2252 61.2143 37.4132 60.7896 37.4132 60.3335V58.5369C37.4132 58.3002 37.3192 58.0948 37.1765 57.9555C37.3192 57.7988 37.4132 57.5934 37.4132 57.3567V55.5602C37.4132 55.1041 37.2252 54.6793 36.9258 54.3799H39.0844C38.785 54.6793 38.597 55.1041 38.597 55.5602V57.3567C38.597 57.5934 38.691 57.7988 38.8337 57.9555C38.691 58.0983 38.597 58.3037 38.597 58.5369V60.3335C38.597 60.7896 38.785 61.2143 39.0844 61.5137Z" fill="#1B4332"/>
<path d="M44.6267 61.5137H40.0762C40.3756 61.2143 40.5636 60.7896 40.5636 60.3335V58.5369C40.5636 58.3002 40.4696 58.0948 40.3268 57.9555C40.4696 57.7988 40.5636 57.5934 40.5636 57.3567V55.5602C40.5636 55.1041 40.3756 54.6793 40.0762 54.3799H42.2348C41.9354 54.6793 41.7474 55.1041 41.7474 55.5602V57.3567C41.7474 57.5934 41.8414 57.7988 41.9841 57.9555C41.8414 58.0983 41.7474 58.3037 41.7474 58.5369V60.3335H43.4638C43.9199 60.3335 44.3307 60.1455 44.6301 59.846V61.5172L44.6267 61.5137Z" fill="#1B4332"/>
<path d="M35.9395 61.5137H33.7983C34.0977 61.2143 34.2857 60.7896 34.2857 60.3335V57.2766L32.5693 61.5137L30.8528 57.2766V60.3335C30.8528 60.7896 31.0408 61.2143 31.3402 61.5137H29.1816C29.4811 61.2143 29.6691 60.7896 29.6691 60.3335V58.5369C29.6691 58.3002 29.5751 58.0948 29.4323 57.9555C29.5751 57.7988 29.6691 57.5934 29.6691 57.3567V55.5602C29.6691 55.1041 29.4811 54.6793 29.1816 54.3799H30.8493L32.5658 58.617L34.2822 54.3799H35.936C35.6366 54.6793 35.4486 55.1041 35.4486 55.5602V57.3567C35.4486 57.5934 35.5426 57.7988 35.6992 57.9555C35.5426 58.0983 35.4486 58.3037 35.4486 58.5369V60.3335C35.4486 60.7896 35.6366 61.2143 35.936 61.5137H35.9395Z" fill="#1B4332"/>
<path d="M47.7671 61.5137H45.6085C45.9079 61.2142 46.0959 60.7895 46.0959 60.3334V57.9554L45.1211 55.5636C44.947 55.1075 44.5849 54.6827 44.1602 54.3833H46.3188C46.2248 54.54 46.1621 54.728 46.1621 54.9334C46.1621 55.1388 46.2108 55.3442 46.3048 55.5636L46.6843 56.4932L47.0638 55.5636C47.1578 55.3442 47.2066 55.1214 47.2066 54.9334C47.2066 54.728 47.1578 54.54 47.0638 54.3833H49.205C48.7803 54.6827 48.4321 55.1075 48.2441 55.5636L47.2832 57.9554V60.3334C47.2832 60.7895 47.4573 61.2142 47.7706 61.5137H47.7671Z" fill="#1B4332"/>
<path d="M62.1997 12.8754L62.1022 12.2836L62.2797 11.9737C64.3792 12.099 66.3985 12.576 66.6283 15.0236C67.2411 14.6441 67.9618 14.4874 68.5954 14.1671C69.0028 13.9617 69.33 13.5091 69.6469 13.3838C70.0751 13.2132 70.8794 13.1749 71.3668 13.0426C71.3041 13.2967 70.9211 13.2967 70.6774 13.4987C70.4755 13.6658 70.0438 14.0801 69.9532 14.3029C69.8453 14.571 69.5842 15.7826 70.1413 15.6399C70.0473 14.5153 70.7088 13.993 71.614 13.5195C73.2643 12.6596 80.5165 10.0484 82.125 10.1493C84.0329 10.2677 85.0322 11.9145 84.3254 13.6901C83.4202 15.9706 79.2561 15.5772 77.2542 15.793C74.0894 16.1377 71.13 16.5068 68.2473 17.9482C65.9041 19.1215 66.3463 19.8422 65.065 21.7954C60.5041 28.7586 49.7285 30.9137 43.0855 25.6286C38.1068 21.6665 42.9184 19.0971 46.3583 16.7087C46.5846 16.9106 46.8631 17.3284 46.6716 17.6244C46.5846 17.7602 44.4295 19.0066 43.9838 19.3791C42.2082 20.8623 40.3177 23.3377 43.7993 24.1524C49.0148 25.371 61.6809 20.8553 64.9397 16.4789C66.7502 14.0488 64.4558 12.8789 62.1962 12.8789L62.1997 12.8754ZM81.1119 11.8518C78.3962 12.4159 81.7177 15.33 82.8318 12.4994C82.6159 11.7195 81.7908 11.7126 81.1119 11.8518ZM68.1532 14.8704C66.4333 15.3056 65.1068 16.4058 66.2418 18.2267C66.583 18.0526 66.2871 17.7184 66.4612 17.5443C66.7293 17.2762 67.8921 16.8828 68.3064 16.7018L68.2333 16.3988C67.7598 16.646 67.0983 17.1056 66.5865 17.2031C66.4403 17.231 66.2244 17.3702 66.1652 17.0812C66.0573 16.5346 67.7424 16.2074 68.0836 15.9428L68.1532 14.8669V14.8704ZM55.9188 22.8155L45.6724 25.1029C48.1165 25.19 50.5884 24.9741 52.8968 24.1489L55.9188 22.8155ZM47.2008 25.8724H50.3378C51.2639 25.8724 52.9664 25.3014 53.896 24.9985C54.5923 24.7722 55.407 24.424 56.079 24.1211C56.1869 24.0724 56.5385 24.0341 56.2983 23.8843L52.5556 24.8801L47.2008 25.8724ZM48.5795 26.6348H51.5633C51.7269 26.6348 52.8724 26.325 53.1683 26.2553C53.2623 26.231 54.1641 26.0673 54.0074 25.8689L48.5795 26.6348Z" fill="#1B4332"/>
<path d="M56.2284 19.7586C56.3747 19.313 56.8412 18.8325 57.1476 18.4635C58.0041 17.4399 59.0625 16.4372 59.8911 15.3997C60.0721 15.1733 60.3507 14.8635 60.3542 14.5641C60.1 14.6998 59.8598 14.9575 59.6648 15.1733C58.6447 16.3049 57.2033 18.4078 56.1518 19.3026C55.8455 19.5637 55.4868 19.6681 55.0899 19.602C54.7313 19.5463 51.4516 16.7366 51.3611 16.4407C51.281 16.1795 51.288 15.8836 51.4133 15.6364C52.517 14.4561 53.5128 13.1366 54.6164 11.9633C54.9994 11.5559 56.1588 10.2851 56.5418 10.0693C57.8787 9.32073 58.9511 10.6055 60.5073 9.29288C60.664 9.16058 61.7712 7.9246 61.813 7.83408C61.9836 7.45458 61.5484 7.02983 61.806 6.61899C61.8722 6.51454 62.6381 5.97141 62.8818 5.70333C63.6373 4.86077 67.2095 0.258065 67.8048 0.0805023C69.1418 -0.319885 70.1654 0.839497 69.5143 2.09288L64.4834 7.61126C64.0551 9.13969 63.5224 8.32847 62.948 8.53737C62.7948 8.59307 61.2106 10.3513 61.0505 10.5985C60.1696 11.9772 61.7921 12.9799 60.6919 14.8252C60.107 15.807 58.0946 17.896 57.2207 18.843C56.9213 19.1668 56.5905 19.508 56.225 19.7586H56.2284ZM68.7275 1.0101C68.2296 0.515705 67.582 1.27122 67.9163 1.74124C68.2505 2.21126 69.295 1.5776 68.7275 1.0101ZM68.3062 2.64994C67.7944 2.78572 67.2965 3.40197 66.9275 3.79191C65.8865 4.88514 64.9638 6.10719 63.8706 7.15865C63.6095 7.27702 63.8776 7.54162 63.9472 7.53814C64.2745 7.51725 67.8257 3.26271 68.3062 2.65342V2.64994ZM59.5917 11.6639C59.8911 11.73 59.9538 11.5072 60.1104 11.3436C60.7371 10.6995 61.5414 9.76986 62.1159 9.07006C62.3213 8.81938 62.6311 8.48863 62.6486 8.15091L60.7371 10.1354L59.5917 11.6639ZM60.201 13.6484C59.9921 12.3358 58.3592 10.7552 56.9909 10.9014L58.5959 11.6639L60.201 13.6484ZM56.1518 12.1234C55.9255 12.1722 53.081 15.3091 52.9836 15.5354C52.9035 15.72 52.8443 15.894 53.0915 15.9428L56.5279 12.3532L56.1518 12.1234ZM55.5495 15.1142C55.9499 14.6859 57.0014 13.624 57.2207 13.1923C57.3565 12.9242 57.252 12.9033 57.0675 12.7362L53.6311 16.4755L54.0072 16.7018C54.5433 16.1935 55.0516 15.6503 55.553 15.1107L55.5495 15.1142ZM58.0598 13.4987C57.7708 13.4325 57.6977 13.6623 57.5271 13.8051C57.064 14.1846 55.0482 16.378 54.7696 16.855C54.6513 17.0569 54.4632 17.1579 54.5468 17.4712C54.8358 17.5374 54.9089 17.3076 55.083 17.1683C55.6087 16.7366 57.3843 14.8739 57.7603 14.3412C57.9484 14.0766 58.119 13.8538 58.0667 13.5022L58.0598 13.4987ZM58.5994 14.2612C57.7882 15.2917 56.5592 16.2526 55.7723 17.2449C55.6574 17.3877 55.1004 17.9969 55.5426 18.0805C55.8872 18.1467 58.589 14.9714 58.9789 14.4909L58.6029 14.2646L58.5994 14.2612Z" fill="#1B4332"/>
<path d="M47.5077 21.7431L52.3298 18.9961C52.7615 19.1632 53.322 19.5984 53.0122 20.0615C54.4675 20.1555 55.7 21.851 57.2215 20.5211C58.0605 19.7899 59.7526 17.8402 60.5046 16.9245C61.3089 15.9462 62.0296 14.9644 62.336 13.711C65.2884 13.6797 65.5669 15.0027 63.5719 16.9315C59.8396 20.5385 49.9657 24.0445 44.8373 23.5744C39.4686 23.08 45.1507 19.2816 46.975 18.2336C47.4381 18.4669 47.17 20.1973 47.7375 20.065C48.2249 19.9501 48.4826 17.9238 48.5 17.4642L50.0632 16.7261L51.9433 18.6166C51.9468 18.8882 47.7863 20.9249 47.5112 21.7466L47.5077 21.7431Z" fill="#1B4332"/>
<path d="M47.8145 19.4521L47.3236 17.7322C46.6273 15.295 43.4555 13.4811 44.7611 10.748L45.1928 12.5306C46.6342 14.7101 48.7336 16.5345 47.818 19.4521H47.8145Z" fill="#1B4332"/>
<path d="M48.274 15.3298C48.2461 14.6649 48.3436 13.9964 48.2043 13.3349C48.0059 12.3739 47.1076 11.42 46.7769 10.4834C46.2929 9.11863 46.2651 7.62849 46.8987 6.31592L47.3131 9.03159C47.8179 10.9151 50.0078 13.6238 48.274 15.3298Z" fill="#1B4332"/>
<path d="M50.7203 13.3422C50.6437 11.5387 48.7218 10.2296 49.8046 8.30078L50.024 9.83618C50.1911 10.9259 51.6534 12.3569 50.7203 13.3422Z" fill="#1B4332"/>
<path d="M50.7202 14.7207C50.205 16.0507 49.4042 16.2735 48.123 16.7052L47.9941 16.0298L48.116 15.8662L50.7237 14.7207H50.7202Z" fill="#1B4332"/>
<path d="M123.793 55.0448C120.388 55.0448 117.338 52.6146 116.586 49.1191L115.88 45.8046H112.297C112.252 46.1144 112.21 46.4243 112.21 46.7342C112.21 47.6638 112.52 48.5028 113.007 49.1226H106.949C107.966 48.2835 108.718 47.0893 109.028 45.8081L110.044 40.7667L110.09 40.2792C110.09 39.8371 109.957 39.4402 109.693 39.1303C110.222 38.6881 110.577 38.1137 110.755 37.4487L111.771 32.4073C111.858 32.0974 111.858 31.7458 111.858 31.4359C111.858 30.5516 111.594 29.7125 111.106 29.0928H117.119C116.632 29.7125 116.367 30.5516 116.367 31.4359C116.367 31.7458 116.367 32.0974 116.454 32.4073L117.471 37.4487C117.603 38.1102 118 38.6881 118.487 39.1303C118.268 39.4402 118.132 39.7918 118.132 40.2792L118.177 40.7667L119.901 49.1226C120.521 52.1725 123.083 54.3833 126.001 54.6932L125.294 54.8707C124.806 54.9578 124.277 55.0483 123.79 55.0483L123.793 55.0448ZM115.215 42.5353L114.111 37.097L113.007 42.5353H115.218H115.215Z" fill="#1B4332"/>
<path d="M71.3147 49.1226H58.5371C59.3762 48.2835 59.9089 47.0893 59.9089 45.8081V40.7667C59.9089 40.1052 59.6443 39.5272 59.2474 39.1303C59.6443 38.6881 59.9089 38.1137 59.9089 37.4487V32.4073C59.9089 31.126 59.3797 29.9318 58.5371 29.0928H71.3147V33.779C70.4756 32.94 69.3267 32.4073 68.0419 32.4073H63.2234V37.4487H64.7274C66.0087 37.4487 67.2029 36.9195 68.0419 36.0769V42.1349C67.2029 41.2959 66.0087 40.7632 64.7274 40.7632H63.2234V45.8046H68.0419C69.3232 45.8046 70.4721 45.2754 71.3147 44.4328V49.1191V49.1226Z" fill="#1B4332"/>
<path d="M93.5021 48.9972H87.4824C88.318 48.1616 88.8437 46.9743 88.8437 45.7035V40.6935C88.8437 40.0355 88.5791 39.4645 88.1857 39.0676C88.5826 38.6289 88.8437 38.0579 88.8437 37.3999V32.3898C88.8437 31.1155 88.3145 29.9283 87.4824 29.0962H93.5021C92.6666 29.9318 92.1408 31.119 92.1408 32.3898V37.3999C92.1408 38.0579 92.4054 38.6289 92.7989 39.0676C92.402 39.4645 92.1408 40.0355 92.1408 40.6935V45.7035C92.1408 46.9778 92.67 48.1651 93.5021 48.9972Z" fill="#1B4332"/>
<path d="M85.7873 49.1225H73.0098C73.8488 48.2834 74.3815 47.0892 74.3815 45.808V40.7666C74.3815 40.1051 74.1169 39.5306 73.7165 39.1302C74.1134 38.6881 74.3815 38.1136 74.3815 37.4521V32.4107C74.3815 31.1295 73.8523 29.9353 73.0098 29.0962H79.0678C78.2287 29.9353 77.696 31.1295 77.696 32.4107V37.4521C77.696 38.1136 77.9606 38.6881 78.361 39.1302C77.9641 39.5306 77.696 40.1051 77.696 40.7666V45.808H82.5146C83.7958 45.808 84.9448 45.2788 85.7873 44.4362V49.1225Z" fill="#1B4332"/>
<path d="M105.324 49.1225H99.2658C100.105 48.2834 100.638 47.0892 100.638 45.808V39.1302L97.8975 32.4107C97.4101 31.1295 96.3934 29.9353 95.1992 29.0962H101.257C100.993 29.5384 100.815 30.0676 100.815 30.642C100.815 31.2165 100.947 31.791 101.212 32.4107L102.274 35.0184L103.336 32.4107C103.6 31.791 103.733 31.1747 103.733 30.642C103.733 30.0676 103.6 29.5384 103.336 29.0962H109.349C108.154 29.9353 107.183 31.1295 106.65 32.4107L103.952 39.1302V45.808C103.952 47.0892 104.439 48.2834 105.324 49.1225Z" fill="#1B4332"/>
<path d="M37.6858 49.1016H24.9082C25.7473 48.2625 26.28 47.0683 26.28 45.7871V40.7457C26.28 40.0842 26.0154 39.5062 25.6185 39.1093C26.0154 38.6671 26.28 38.0927 26.28 37.4277V32.3863C26.28 31.105 25.7508 29.9108 24.9082 29.0718H37.6858V33.758C36.8467 32.919 35.6978 32.3863 34.413 32.3863H29.5945V37.4277H31.0985C32.3798 37.4277 33.574 36.8985 34.413 36.0559V42.1139C33.574 41.2749 32.3798 40.7422 31.0985 40.7422H29.5945V45.7836H34.413C35.6943 45.7836 36.8432 45.2544 37.6858 44.4118V49.0981V49.1016Z" fill="#1B4332"/>
<path d="M52.1584 49.1225H39.3809C40.2199 48.2834 40.7526 47.0892 40.7526 45.808V40.7666C40.7526 40.1051 40.488 39.5306 40.0876 39.1302C40.4845 38.6881 40.7526 38.1136 40.7526 37.4521V32.4107C40.7526 31.1295 40.2234 29.9353 39.3809 29.0962H45.4389C44.5998 29.9353 44.0671 31.1295 44.0671 32.4107V37.4521C44.0671 38.1136 44.3317 38.6881 44.7321 39.1302C44.3352 39.5306 44.0671 40.1051 44.0671 40.7666V45.808H48.8857C50.1669 45.808 51.3159 45.2788 52.1584 44.4362V49.1225Z" fill="#1B4332"/>
<path d="M2.21083 55.0239C5.66112 55.0239 8.71103 52.5937 9.46306 49.0981L11.9385 37.0726L13.7072 45.7836C13.7942 46.0935 13.7942 46.4451 13.7942 46.755C13.7942 47.6393 13.5296 48.4784 13.0422 49.0981H19.0549C18.5675 48.4784 18.3029 47.6393 18.3029 46.755C18.3029 46.4451 18.3029 46.0935 18.3899 45.7836L19.4518 40.7422C19.5841 40.0807 19.9393 39.5063 20.4685 39.1059C20.2039 38.796 20.0716 38.3539 20.0716 37.9117L20.1168 37.4243L21.1335 32.3829C21.4433 31.1016 22.1954 29.9074 23.212 29.0684H17.154C17.6414 29.6881 17.9478 30.5272 17.9478 31.4568C17.9478 31.7666 17.9025 32.0765 17.8607 32.3863L16.0468 41.0974L14.2781 32.3863C14.1911 32.0765 14.1911 31.7248 14.1911 31.415C14.1911 30.5306 14.4557 29.6916 14.9431 29.0718H8.88511C9.41431 29.6916 9.6824 30.5306 9.6824 31.415C9.6824 31.7248 9.6824 32.0765 9.59188 32.3863L7.77795 41.0974L6.00928 32.3863C5.92224 32.0765 5.92224 31.7248 5.92224 31.415C5.92224 30.5306 6.18685 29.6916 6.67428 29.0718H0.661509C1.67814 29.9109 2.43017 31.1051 2.69478 32.3863L3.75667 37.4277L3.80193 37.8699C3.80193 38.3573 3.62437 38.7542 3.40503 39.1059C3.89246 39.5063 4.28936 40.0807 4.42166 40.7422L6.14507 49.0981C5.52534 52.148 2.96286 54.3589 0 54.6687L0.70677 54.8463C1.23598 54.9333 1.7234 55.0239 2.21083 55.0239Z" fill="#1B4332"/>
</svg>
